[FRAME]
media_type=video
stream_index=0
key_frame=1
pkt_pts=0
pkt_pts_time=0.000000
pkt_dts=0
pkt_dts_time=0.000000
best_effort_timestamp=0
best_effort_timestamp_time=0.000000
pkt_duration=2969
pkt_duration_time=0.032989
pkt_pos=48
pkt_size=94077
width=1280
height=720
pix_fmt=yuvj420p
sample_aspect_ratio=1:1
pict_type=I
coded_picture_number=0
display_picture_number=0
interlaced_frame=0
top_field_first=0
repeat_pict=0
color_range=pc
color_space=unknown
color_primaries=unknown
color_transfer=unknown
chroma_location=left
[/FRAME]
[FRAME]
media_type=video
stream_index=0
key_frame=0
pkt_pts=2969
pkt_pts_time=0.032989
pkt_dts=2969
pkt_dts_time=0.032989
best_effort_timestamp=2969
best_effort_timestamp_time=0.032989
pkt_duration=3049
pkt_duration_time=0.033878
pkt_pos=94482
pkt_size=58744
width=1280
height=720
pix_fmt=yuvj420p
sample_aspect_ratio=1:1
pict_type=P
coded_picture_number=1
display_picture_number=0
interlaced_frame=0
top_field_first=0
repeat_pict=0
color_range=pc
color_space=unknown
color_primaries=unknown
color_transfer=unknown
chroma_location=left
[/FRAME]
[FRAME]
media_type=video
stream_index=0
key_frame=0
pkt_pts=6018
pkt_pts_time=0.066867
pkt_dts=6018
pkt_dts_time=0.066867
best_effort_timestamp=6018
best_effort_timestamp_time=0.066867
pkt_duration=2886
pkt_duration_time=0.032067
pkt_pos=153586
pkt_size=51747
width=1280
height=720
pix_fmt=yuvj420p
sample_aspect_ratio=1:1
pict_type=P
coded_picture_number=2
display_picture_number=0
interlaced_frame=0
top_field_first=0
repeat_pict=0
color_range=pc
color_space=unknown
color_primaries=unknown
color_transfer=unknown
chroma_location=left
[/FRAME]
[FRAME]
media_type=video
stream_index=0
key_frame=0
pkt_pts=8904
pkt_pts_time=0.098933
pkt_dts=8904
pkt_dts_time=0.098933
best_effort_timestamp=8904
best_effort_timestamp_time=0.098933
pkt_duration=6026
pkt_duration_time=0.066956
pkt_pos=206003
pkt_size=66815
width=1280
height=720
pix_fmt=yuvj420p
sample_aspect_ratio=1:1
pict_type=P
coded_picture_number=3
display_picture_number=0
interlaced_frame=0
top_field_first=0
repeat_pict=0
color_range=pc
color_space=unknown
color_primaries=unknown
color_transfer=unknown
chroma_location=left
[/FRAME]
[FRAME]
media_type=video
stream_index=0
key_frame=0
pkt_pts=14930
pkt_pts_time=0.165889
pkt_dts=14930
pkt_dts_time=0.165889
best_effort_timestamp=14930
best_effort_timestamp_time=0.165889
pkt_duration=3181
pkt_duration_time=0.035344
pkt_pos=273828
pkt_size=65974
width=1280
height=720
pix_fmt=yuvj420p
sample_aspect_ratio=1:1
pict_type=P
coded_picture_number=4
display_picture_number=0
interlaced_frame=0
top_field_first=0
repeat_pict=0
color_range=pc
color_space=unknown
color_primaries=unknown
color_transfer=unknown
chroma_location=left
[/FRAME]
[FRAME]
media_type=video
stream_index=0
key_frame=0
pkt_pts=18111
pkt_pts_time=0.201233
pkt_dts=18111
pkt_dts_time=0.201233
best_effort_timestamp=18111
best_effort_timestamp_time=0.201233
pkt_duration=2744
pkt_duration_time=0.030489
pkt_pos=340467
pkt_size=61300
width=1280
height=720
pix_fmt=yuvj420p
sample_aspect_ratio=1:1
pict_type=P
coded_picture_number=5
display_picture_number=0
interlaced_frame=0
top_field_first=0
repeat_pict=0
color_range=pc
color_space=unknown
color_primaries=unknown
color_transfer=unknown
chroma_location=left
[/FRAME]
[FRAME]
media_type=video
stream_index=0
key_frame=0
pkt_pts=20855
pkt_pts_time=0.231722
pkt_dts=20855
pkt_dts_time=0.231722
best_effort_timestamp=20855
best_effort_timestamp_time=0.231722
pkt_duration=3046
pkt_duration_time=0.033844
pkt_pos=402096
pkt_size=48387
width=1280
height=720
pix_fmt=yuvj420p
sample_aspect_ratio=1:1
pict_type=P
coded_picture_number=6
display_picture_number=0
interlaced_frame=0
top_field_first=0
repeat_pict=0
color_range=pc
color_space=unknown
color_primaries=unknown
color_transfer=unknown
chroma_location=left
[/FRAME]
[FRAME]
media_type=video
stream_index=0
key_frame=0
pkt_pts=23901
pkt_pts_time=0.265567
pkt_dts=23901
pkt_dts_time=0.265567
best_effort_timestamp=23901
best_effort_timestamp_time=0.265567
pkt_duration=2919
pkt_duration_time=0.032433
pkt_pos=451130
pkt_size=52243
width=1280
height=720
pix_fmt=yuvj420p
sample_aspect_ratio=1:1
pict_type=P
coded_picture_number=7
display_picture_number=0
interlaced_frame=0
top_field_first=0
repeat_pict=0
color_range=pc
color_space=unknown
color_primaries=unknown
color_transfer=unknown
chroma_location=left
[/FRAME]
[FRAME]
media_type=video
stream_index=0
key_frame=0
pkt_pts=26820
pkt_pts_time=0.298000
pkt_dts=26820
pkt_dts_time=0.298000
best_effort_timestamp=26820
best_effort_timestamp_time=0.298000
pkt_duration=2939
pkt_duration_time=0.032656
pkt_pos=503688
pkt_size=56724
width=1280
height=720
pix_fmt=yuvj420p
sample_aspect_ratio=1:1
pict_type=P
coded_picture_number=8
display_picture_number=0
interlaced_frame=0
top_field_first=0
repeat_pict=0
color_range=pc
color_space=unknown
color_primaries=unknown
color_transfer=unknown
chroma_location=left
[/FRAME]
[FRAME]
media_type=video
stream_index=0
key_frame=0
pkt_pts=29759
pkt_pts_time=0.330656
pkt_dts=29759
pkt_dts_time=0.330656
best_effort_timestamp=29759
best_effort_timestamp_time=0.330656
pkt_duration=2969
pkt_duration_time=0.032989
pkt_pos=561068
pkt_size=60907
width=1280
height=720
pix_fmt=yuvj420p
sample_aspect_ratio=1:1
pict_type=P
coded_picture_number=9
display_picture_number=0
interlaced_frame=0
top_field_first=0
repeat_pict=0
color_range=pc
color_space=unknown
color_primaries=unknown
color_transfer=unknown
chroma_location=left
[/FRAME]
[FRAME]
media_type=video
stream_index=0
key_frame=0
pkt_pts=32728
pkt_pts_time=0.363644
pkt_dts=32728
pkt_dts_time=0.363644
best_effort_timestamp=32728
best_effort_timestamp_time=0.363644
pkt_duration=2975
pkt_duration_time=0.033056
pkt_pos=622308
pkt_size=63537
width=1280
height=720
pix_fmt=yuvj420p
sample_aspect_ratio=1:1
pict_type=P
coded_picture_number=10
display_picture_number=0
interlaced_frame=0
top_field_first=0
repeat_pict=0
color_range=pc
color_space=unknown
color_primaries=unknown
color_transfer=unknown
chroma_location=left
[/FRAME]
[FRAME]
media_type=video
stream_index=0
key_frame=0
pkt_pts=35703
pkt_pts_time=0.396700
pkt_dts=35703
pkt_dts_time=0.396700
best_effort_timestamp=35703
best_effort_timestamp_time=0.396700
pkt_duration=3018
pkt_duration_time=0.033533
pkt_pos=686509
pkt_size=43466
width=1280
height=720
pix_fmt=yuvj420p
sample_aspect_ratio=1:1
pict_type=P
coded_picture_number=11
display_picture_number=0
interlaced_frame=0
top_field_first=0
repeat_pict=0
color_range=pc
color_space=unknown
color_primaries=unknown
color_transfer=unknown
chroma_location=left
[/FRAME]
[FRAME]
media_type=video
stream_index=0
key_frame=0
pkt_pts=38721
pkt_pts_time=0.430233
pkt_dts=38721
pkt_dts_time=0.430233
best_effort_timestamp=38721
best_effort_timestamp_time=0.430233
pkt_duration=3060
pkt_duration_time=0.034000
pkt_pos=730307
pkt_size=56466
width=1280
height=720
pix_fmt=yuvj420p
sample_aspect_ratio=1:1
pict_type=P
coded_picture_number=12
display_picture_number=0
interlaced_frame=0
top_field_first=0
repeat_pict=0
color_range=pc
color_space=unknown
color_primaries=unknown
color_transfer=unknown
chroma_location=left
[/FRAME]
[FRAME]
media_type=video
stream_index=0
key_frame=0
pkt_pts=41781
pkt_pts_time=0.464233
pkt_dts=41781
pkt_dts_time=0.464233
best_effort_timestamp=41781
best_effort_timestamp_time=0.464233
pkt_duration=2856
pkt_duration_time=0.031733
pkt_pos=787440
pkt_size=46428
width=1280
height=720
pix_fmt=yuvj420p
sample_aspect_ratio=1:1
pict_type=P
coded_picture_number=13
display_picture_number=0
interlaced_frame=0
top_field_first=0
repeat_pict=0
color_range=pc
color_space=unknown
color_primaries=unknown
color_transfer=unknown
chroma_location=left
[/FRAME]
[FRAME]
media_type=video
stream_index=0
key_frame=0
pkt_pts=44637
pkt_pts_time=0.495967
pkt_dts=44637
pkt_dts_time=0.495967
best_effort_timestamp=44637
best_effort_timestamp_time=0.495967
pkt_duration=2992
pkt_duration_time=0.033244
pkt_pos=834196
pkt_size=45458
width=1280
height=720
pix_fmt=yuvj420p
sample_aspect_ratio=1:1
pict_type=P
coded_picture_number=14
display_picture_number=0
interlaced_frame=0
top_field_first=0
repeat_pict=0
color_range=pc
color_space=unknown
color_primaries=unknown
color_transfer=unknown
chroma_location=left
[/FRAME]
[FRAME]
media_type=video
stream_index=0
key_frame=0
pkt_pts=47629
pkt_pts_time=0.529211
pkt_dts=47629
pkt_dts_time=0.529211
best_effort_timestamp=47629
best_effort_timestamp_time=0.529211
pkt_duration=2971
pkt_duration_time=0.033011
pkt_pos=880298
pkt_size=58662
width=1280
height=720
pix_fmt=yuvj420p
sample_aspect_ratio=1:1
pict_type=P
coded_picture_number=15
display_picture_number=0
interlaced_frame=0
top_field_first=0
repeat_pict=0
color_range=pc
color_space=unknown
color_primaries=unknown
color_transfer=unknown
chroma_location=left
[/FRAME]
[FRAME]
media_type=video
stream_index=0
key_frame=0
pkt_pts=50600
pkt_pts_time=0.562222
pkt_dts=50600
pkt_dts_time=0.562222
best_effort_timestamp=50600
best_effort_timestamp_time=0.562222
pkt_duration=3044
pkt_duration_time=0.033822
pkt_pos=939613
pkt_size=52299
width=1280
height=720
pix_fmt=yuvj420p
sample_aspect_ratio=1:1
pict_type=P
coded_picture_number=16
display_picture_number=0
interlaced_frame=0
top_field_first=0
repeat_pict=0
color_range=pc
color_space=unknown
color_primaries=unknown
color_transfer=unknown
chroma_location=left
[/FRAME]
[FRAME]
media_type=video
stream_index=0
key_frame=0
pkt_pts=53644
pkt_pts_time=0.596044
pkt_dts=53644
pkt_dts_time=0.596044
best_effort_timestamp=53644
best_effort_timestamp_time=0.596044
pkt_duration=2960
pkt_duration_time=0.032889
pkt_pos=992235
pkt_size=50154
width=1280
height=720
pix_fmt=yuvj420p
sample_aspect_ratio=1:1
pict_type=P
coded_picture_number=17
display_picture_number=0
interlaced_frame=0
top_field_first=0
repeat_pict=0
color_range=pc
color_space=unknown
color_primaries=unknown
color_transfer=unknown
chroma_location=left
[/FRAME]
[FRAME]
media_type=video
stream_index=0
key_frame=0
pkt_pts=56604
pkt_pts_time=0.628933
pkt_dts=56604
pkt_dts_time=0.628933
best_effort_timestamp=56604
best_effort_timestamp_time=0.628933
pkt_duration=2923
pkt_duration_time=0.032478
pkt_pos=1043040
pkt_size=51629
width=1280
height=720
pix_fmt=yuvj420p
sample_aspect_ratio=1:1
pict_type=P
coded_picture_number=18
display_picture_number=0
interlaced_frame=0
top_field_first=0
repeat_pict=0
color_range=pc
color_space=unknown
color_primaries=unknown
color_transfer=unknown
chroma_location=left
[/FRAME]
[FRAME]
media_type=video
stream_index=0
key_frame=0
pkt_pts=59527
pkt_pts_time=0.661411
pkt_dts=59527
pkt_dts_time=0.661411
best_effort_timestamp=59527
best_effort_timestamp_time=0.661411
pkt_duration=2966
pkt_duration_time=0.032956
pkt_pos=1095004
pkt_size=48677
width=1280
height=720
pix_fmt=yuvj420p
sample_aspect_ratio=1:1
pict_type=P
coded_picture_number=19
display_picture_number=0
interlaced_frame=0
top_field_first=0
repeat_pict=0
color_range=pc
color_space=unknown
color_primaries=unknown
color_transfer=unknown
chroma_location=left
[/FRAME]
[FRAME]
media_type=video
stream_index=0
key_frame=0
pkt_pts=62493
pkt_pts_time=0.694367
pkt_dts=62493
pkt_dts_time=0.694367
best_effort_timestamp=62493
best_effort_timestamp_time=0.694367
pkt_duration=2996
pkt_duration_time=0.033289
pkt_pos=1144335
pkt_size=54076
width=1280
height=720
pix_fmt=yuvj420p
sample_aspect_ratio=1:1
pict_type=P
coded_picture_number=20
display_picture_number=0
interlaced_frame=0
top_field_first=0
repeat_pict=0
color_range=pc
color_space=unknown
color_primaries=unknown
color_transfer=unknown
chroma_location=left
[/FRAME]
[FRAME]
media_type=video
stream_index=0
key_frame=0
pkt_pts=65489
pkt_pts_time=0.727656
pkt_dts=65489
pkt_dts_time=0.727656
best_effort_timestamp=65489
best_effort_timestamp_time=0.727656
pkt_duration=2959
pkt_duration_time=0.032878
pkt_pos=1198734
pkt_size=54786
width=1280
height=720
pix_fmt=yuvj420p
sample_aspect_ratio=1:1
pict_type=P
coded_picture_number=21
display_picture_number=0
interlaced_frame=0
top_field_first=0
repeat_pict=0
color_range=pc
color_space=unknown
color_primaries=unknown
color_transfer=unknown
chroma_location=left
[/FRAME]
[FRAME]
media_type=video
stream_index=0
key_frame=0
pkt_pts=68448
pkt_pts_time=0.760533
pkt_dts=68448
pkt_dts_time=0.760533
best_effort_timestamp=68448
best_effort_timestamp_time=0.760533
pkt_duration=2980
pkt_duration_time=0.033111
pkt_pos=1254179
pkt_size=47799
width=1280
height=720
pix_fmt=yuvj420p
sample_aspect_ratio=1:1
pict_type=P
coded_picture_number=22
display_picture_number=0
interlaced_frame=0
top_field_first=0
repeat_pict=0
color_range=pc
color_space=unknown
color_primaries=unknown
color_transfer=unknown
chroma_location=left
[/FRAME]
[FRAME]
media_type=video
stream_index=0
key_frame=0
pkt_pts=71428
pkt_pts_time=0.793644
pkt_dts=71428
pkt_dts_time=0.793644
best_effort_timestamp=71428
best_effort_timestamp_time=0.793644
pkt_duration=2985
pkt_duration_time=0.033167
pkt_pos=1302313
pkt_size=44280
width=1280
height=720
pix_fmt=yuvj420p
sample_aspect_ratio=1:1
pict_type=P
coded_picture_number=23
display_picture_number=0
interlaced_frame=0
top_field_first=0
repeat_pict=0
color_range=pc
color_space=unknown
color_primaries=unknown
color_transfer=unknown
chroma_location=left
[/FRAME]
[FRAME]
media_type=video
stream_index=0
key_frame=0
pkt_pts=74413
pkt_pts_time=0.826811
pkt_dts=74413
pkt_dts_time=0.826811
best_effort_timestamp=74413
best_effort_timestamp_time=0.826811
pkt_duration=2966
pkt_duration_time=0.032956
pkt_pos=1347273
pkt_size=47739
width=1280
height=720
pix_fmt=yuvj420p
sample_aspect_ratio=1:1
pict_type=P
coded_picture_number=24
display_picture_number=0
interlaced_frame=0
top_field_first=0
repeat_pict=0
color_range=pc
color_space=unknown
color_primaries=unknown
color_transfer=unknown
chroma_location=left
[/FRAME]
[FRAME]
media_type=video
stream_index=0
key_frame=0
pkt_pts=77379
pkt_pts_time=0.859767
pkt_dts=77379
pkt_dts_time=0.859767
best_effort_timestamp=77379
best_effort_timestamp_time=0.859767
pkt_duration=3022
pkt_duration_time=0.033578
pkt_pos=1395675
pkt_size=48729
width=1280
height=720
pix_fmt=yuvj420p
sample_aspect_ratio=1:1
pict_type=P
coded_picture_number=25
display_picture_number=0
interlaced_frame=0
top_field_first=0
repeat_pict=0
color_range=pc
color_space=unknown
color_primaries=unknown
color_transfer=unknown
chroma_location=left
[/FRAME]
[FRAME]
media_type=video
stream_index=0
key_frame=0
pkt_pts=80401
pkt_pts_time=0.893344
pkt_dts=80401
pkt_dts_time=0.893344
best_effort_timestamp=80401
best_effort_timestamp_time=0.893344
pkt_duration=2944
pkt_duration_time=0.032711
pkt_pos=1444737
pkt_size=47922
width=1280
height=720
pix_fmt=yuvj420p
sample_aspect_ratio=1:1
pict_type=P
coded_picture_number=26
display_picture_number=0
interlaced_frame=0
top_field_first=0
repeat_pict=0
color_range=pc
color_space=unknown
color_primaries=unknown
color_transfer=unknown
chroma_location=left
[/FRAME]
[FRAME]
media_type=video
stream_index=0
key_frame=0
pkt_pts=83345
pkt_pts_time=0.926056
pkt_dts=83345
pkt_dts_time=0.926056
best_effort_timestamp=83345
best_effort_timestamp_time=0.926056
pkt_duration=2975
pkt_duration_time=0.033056
pkt_pos=1493322
pkt_size=57634
width=1280
height=720
pix_fmt=yuvj420p
sample_aspect_ratio=1:1
pict_type=P
coded_picture_number=27
display_picture_number=0
interlaced_frame=0
top_field_first=0
repeat_pict=0
color_range=pc
color_space=unknown
color_primaries=unknown
color_transfer=unknown
chroma_location=left
[/FRAME]
[FRAME]
media_type=video
stream_index=0
key_frame=0
pkt_pts=86320
pkt_pts_time=0.959111
pkt_dts=86320
pkt_dts_time=0.959111
best_effort_timestamp=86320
best_effort_timestamp_time=0.959111
pkt_duration=2985
pkt_duration_time=0.033167
pkt_pos=1551296
pkt_size=50004
width=1280
height=720
pix_fmt=yuvj420p
sample_aspect_ratio=1:1
pict_type=P
coded_picture_number=28
display_picture_number=0
interlaced_frame=0
top_field_first=0
repeat_pict=0
color_range=pc
color_space=unknown
color_primaries=unknown
color_transfer=unknown
chroma_location=left
[/FRAME]
[FRAME]
media_type=video
stream_index=0
key_frame=0
pkt_pts=89305
pkt_pts_time=0.992278
pkt_dts=89305
pkt_dts_time=0.992278
best_effort_timestamp=89305
best_effort_timestamp_time=0.992278
pkt_duration=2955
pkt_duration_time=0.032833
pkt_pos=1601979
pkt_size=54001
width=1280
height=720
pix_fmt=yuvj420p
sample_aspect_ratio=1:1
pict_type=P
coded_picture_number=29
display_picture_number=0
interlaced_frame=0
top_field_first=0
repeat_pict=0
color_range=pc
color_space=unknown
color_primaries=unknown
color_transfer=unknown
chroma_location=left
[/FRAME]
[FRAME]
media_type=video
stream_index=0
key_frame=1
pkt_pts=92260
pkt_pts_time=1.025111
pkt_dts=92260
pkt_dts_time=1.025111
best_effort_timestamp=92260
best_effort_timestamp_time=1.025111
pkt_duration=2986
pkt_duration_time=0.033178
pkt_pos=1656316
pkt_size=128590
width=1280
height=720
pix_fmt=yuvj420p
sample_aspect_ratio=1:1
pict_type=I
coded_picture_number=30
display_picture_number=0
interlaced_frame=0
top_field_first=0
repeat_pict=0
color_range=pc
color_space=unknown
color_primaries=unknown
color_transfer=unknown
chroma_location=left
[/FRAME]
[FRAME]
media_type=video
stream_index=0
key_frame=0
pkt_pts=95246
pkt_pts_time=1.058289
pkt_dts=95246
pkt_dts_time=1.058289
best_effort_timestamp=95246
best_effort_timestamp_time=1.058289
pkt_duration=3008
pkt_duration_time=0.033422
pkt_pos=1785581
pkt_size=94167
width=1280
height=720
pix_fmt=yuvj420p
sample_aspect_ratio=1:1
pict_type=P
coded_picture_number=31
display_picture_number=0
interlaced_frame=0
top_field_first=0
repeat_pict=0
color_range=pc
color_space=unknown
color_primaries=unknown
color_transfer=unknown
chroma_location=left
[/FRAME]
[FRAME]
media_type=video
stream_index=0
key_frame=0
pkt_pts=98254
pkt_pts_time=1.091711
pkt_dts=98254
pkt_dts_time=1.091711
best_effort_timestamp=98254
best_effort_timestamp_time=1.091711
pkt_duration=3048
pkt_duration_time=0.033867
pkt_pos=1880072
pkt_size=94687
width=1280
height=720
pix_fmt=yuvj420p
sample_aspect_ratio=1:1
pict_type=P
coded_picture_number=32
display_picture_number=0
interlaced_frame=0
top_field_first=0
repeat_pict=0
color_range=pc
color_space=unknown
color_primaries=unknown
color_transfer=unknown
chroma_location=left
[/FRAME]
[FRAME]
media_type=video
stream_index=0
key_frame=0
pkt_pts=101302
pkt_pts_time=1.125578
pkt_dts=101302
pkt_dts_time=1.125578
best_effort_timestamp=101302
best_effort_timestamp_time=1.125578
pkt_duration=2859
pkt_duration_time=0.031767
pkt_pos=1975420
pkt_size=69616
width=1280
height=720
pix_fmt=yuvj420p
sample_aspect_ratio=1:1
pict_type=P
coded_picture_number=33
display_picture_number=0
interlaced_frame=0
top_field_first=0
repeat_pict=0
color_range=pc
color_space=unknown
color_primaries=unknown
color_transfer=unknown
chroma_location=left
[/FRAME]
[FRAME]
media_type=video
stream_index=0
key_frame=0
pkt_pts=104161
pkt_pts_time=1.157344
pkt_dts=104161
pkt_dts_time=1.157344
best_effort_timestamp=104161
best_effort_timestamp_time=1.157344
pkt_duration=3008
pkt_duration_time=0.033422
pkt_pos=2045367
pkt_size=46292
width=1280
height=720
pix_fmt=yuvj420p
sample_aspect_ratio=1:1
pict_type=P
coded_picture_number=34
display_picture_number=0
interlaced_frame=0
top_field_first=0
repeat_pict=0
color_range=pc
color_space=unknown
color_primaries=unknown
color_transfer=unknown
chroma_location=left
[/FRAME]
[FRAME]
media_type=video
stream_index=0
key_frame=0
pkt_pts=107169
pkt_pts_time=1.190767
pkt_dts=107169
pkt_dts_time=1.190767
best_effort_timestamp=107169
best_effort_timestamp_time=1.190767
pkt_duration=2988
pkt_duration_time=0.033200
pkt_pos=2092317
pkt_size=43449
width=1280
height=720
pix_fmt=yuvj420p
sample_aspect_ratio=1:1
pict_type=P
coded_picture_number=35
display_picture_number=0
interlaced_frame=0
top_field_first=0
repeat_pict=0
color_range=pc
color_space=unknown
color_primaries=unknown
color_transfer=unknown
chroma_location=left
[/FRAME]
[FRAME]
media_type=video
stream_index=0
key_frame=0
pkt_pts=110157
pkt_pts_time=1.223967
pkt_dts=110157
pkt_dts_time=1.223967
best_effort_timestamp=110157
best_effort_timestamp_time=1.223967
pkt_duration=2931
pkt_duration_time=0.032567
pkt_pos=2136428
pkt_size=47506
width=1280
height=720
pix_fmt=yuvj420p
sample_aspect_ratio=1:1
pict_type=P
coded_picture_number=36
display_picture_number=0
interlaced_frame=0
top_field_first=0
repeat_pict=0
color_range=pc
color_space=unknown
color_primaries=unknown
color_transfer=unknown
chroma_location=left
[/FRAME]
[FRAME]
media_type=video
stream_index=0
key_frame=0
pkt_pts=113088
pkt_pts_time=1.256533
pkt_dts=113088
pkt_dts_time=1.256533
best_effort_timestamp=113088
best_effort_timestamp_time=1.256533
pkt_duration=3046
pkt_duration_time=0.033844
pkt_pos=2184270
pkt_size=48349
width=1280
height=720
pix_fmt=yuvj420p
sample_aspect_ratio=1:1
pict_type=P
coded_picture_number=37
display_picture_number=0
interlaced_frame=0
top_field_first=0
repeat_pict=0
color_range=pc
color_space=unknown
color_primaries=unknown
color_transfer=unknown
chroma_location=left
[/FRAME]
[FRAME]
media_type=video
stream_index=0
key_frame=0
pkt_pts=116134
pkt_pts_time=1.290378
pkt_dts=116134
pkt_dts_time=1.290378
best_effort_timestamp=116134
best_effort_timestamp_time=1.290378
pkt_duration=2939
pkt_duration_time=0.032656
pkt_pos=2233283
pkt_size=46525
width=1280
height=720
pix_fmt=yuvj420p
sample_aspect_ratio=1:1
pict_type=P
coded_picture_number=38
display_picture_number=0
interlaced_frame=0
top_field_first=0
repeat_pict=0
color_range=pc
color_space=unknown
color_primaries=unknown
color_transfer=unknown
chroma_location=left
[/FRAME]
[FRAME]
media_type=video
stream_index=0
key_frame=0
pkt_pts=119073
pkt_pts_time=1.323033
pkt_dts=119073
pkt_dts_time=1.323033
best_effort_timestamp=119073
best_effort_timestamp_time=1.323033
pkt_duration=2969
pkt_duration_time=0.032989
pkt_pos=2280149
pkt_size=47736
width=1280
height=720
pix_fmt=yuvj420p
sample_aspect_ratio=1:1
pict_type=P
coded_picture_number=39
display_picture_number=0
interlaced_frame=0
top_field_first=0
repeat_pict=0
color_range=pc
color_space=unknown
color_primaries=unknown
color_transfer=unknown
chroma_location=left
[/FRAME]
[FRAME]
media_type=video
stream_index=0
key_frame=0
pkt_pts=122042
pkt_pts_time=1.356022
pkt_dts=122042
pkt_dts_time=1.356022
best_effort_timestamp=122042
best_effort_timestamp_time=1.356022
pkt_duration=2982
pkt_duration_time=0.033133
pkt_pos=2328538
pkt_size=44201
width=1280
height=720
pix_fmt=yuvj420p
sample_aspect_ratio=1:1
pict_type=P
coded_picture_number=40
display_picture_number=0
interlaced_frame=0
top_field_first=0
repeat_pict=0
color_range=pc
color_space=unknown
color_primaries=unknown
color_transfer=unknown
chroma_location=left
[/FRAME]
[FRAME]
media_type=video
stream_index=0
key_frame=0
pkt_pts=125024
pkt_pts_time=1.389156
pkt_dts=125024
pkt_dts_time=1.389156
best_effort_timestamp=125024
best_effort_timestamp_time=1.389156
pkt_duration=2983
pkt_duration_time=0.033144
pkt_pos=2373063
pkt_size=44575
width=1280
height=720
pix_fmt=yuvj420p
sample_aspect_ratio=1:1
pict_type=P
coded_picture_number=41
display_picture_number=0
interlaced_frame=0
top_field_first=0
repeat_pict=0
color_range=pc
color_space=unknown
color_primaries=unknown
color_transfer=unknown
chroma_location=left
[/FRAME]
[FRAME]
media_type=video
stream_index=0
key_frame=0
pkt_pts=128007
pkt_pts_time=1.422300
pkt_dts=128007
pkt_dts_time=1.422300
best_effort_timestamp=128007
best_effort_timestamp_time=1.422300
pkt_duration=2947
pkt_duration_time=0.032744
pkt_pos=2418282
pkt_size=46695
width=1280
height=720
pix_fmt=yuvj420p
sample_aspect_ratio=1:1
pict_type=P
coded_picture_number=42
display_picture_number=0
interlaced_frame=0
top_field_first=0
repeat_pict=0
color_range=pc
color_space=unknown
color_primaries=unknown
color_transfer=unknown
chroma_location=left
[/FRAME]
[FRAME]
media_type=video
stream_index=0
key_frame=0
pkt_pts=130954
pkt_pts_time=1.455044
pkt_dts=130954
pkt_dts_time=1.455044
best_effort_timestamp=130954
best_effort_timestamp_time=1.455044
pkt_duration=2994
pkt_duration_time=0.033267
pkt_pos=2465288
pkt_size=40527
width=1280
height=720
pix_fmt=yuvj420p
sample_aspect_ratio=1:1
pict_type=P
coded_picture_number=43
display_picture_number=0
interlaced_frame=0
top_field_first=0
repeat_pict=0
color_range=pc
color_space=unknown
color_primaries=unknown
color_transfer=unknown
chroma_location=left
[/FRAME]
[FRAME]
media_type=video
stream_index=0
key_frame=0
pkt_pts=133948
pkt_pts_time=1.488311
pkt_dts=133948
pkt_dts_time=1.488311
best_effort_timestamp=133948
best_effort_timestamp_time=1.488311
pkt_duration=2980
pkt_duration_time=0.033111
pkt_pos=2506479
pkt_size=42778
width=1280
height=720
pix_fmt=yuvj420p
sample_aspect_ratio=1:1
pict_type=P
coded_picture_number=44
display_picture_number=0
interlaced_frame=0
top_field_first=0
repeat_pict=0
color_range=pc
color_space=unknown
color_primaries=unknown
color_transfer=unknown
chroma_location=left
[/FRAME]
[FRAME]
media_type=video
stream_index=0
key_frame=0
pkt_pts=136928
pkt_pts_time=1.521422
pkt_dts=136928
pkt_dts_time=1.521422
best_effort_timestamp=136928
best_effort_timestamp_time=1.521422
pkt_duration=2986
pkt_duration_time=0.033178
pkt_pos=2549914
pkt_size=46359
width=1280
height=720
pix_fmt=yuvj420p
sample_aspect_ratio=1:1
pict_type=P
coded_picture_number=45
display_picture_number=0
interlaced_frame=0
top_field_first=0
repeat_pict=0
color_range=pc
color_space=unknown
color_primaries=unknown
color_transfer=unknown
chroma_location=left
[/FRAME]
[FRAME]
media_type=video
stream_index=0
key_frame=0
pkt_pts=139914
pkt_pts_time=1.554600
pkt_dts=139914
pkt_dts_time=1.554600
best_effort_timestamp=139914
best_effort_timestamp_time=1.554600
pkt_duration=2947
pkt_duration_time=0.032744
pkt_pos=2596598
pkt_size=49963
width=1280
height=720
pix_fmt=yuvj420p
sample_aspect_ratio=1:1
pict_type=P
coded_picture_number=46
display_picture_number=0
interlaced_frame=0
top_field_first=0
repeat_pict=0
color_range=pc
color_space=unknown
color_primaries=unknown
color_transfer=unknown
chroma_location=left
[/FRAME]
[FRAME]
media_type=video
stream_index=0
key_frame=0
pkt_pts=142861
pkt_pts_time=1.587344
pkt_dts=142861
pkt_dts_time=1.587344
best_effort_timestamp=142861
best_effort_timestamp_time=1.587344
pkt_duration=2996
pkt_duration_time=0.033289
pkt_pos=2647199
pkt_size=46522
width=1280
height=720
pix_fmt=yuvj420p
sample_aspect_ratio=1:1
pict_type=P
coded_picture_number=47
display_picture_number=0
interlaced_frame=0
top_field_first=0
repeat_pict=0
color_range=pc
color_space=unknown
color_primaries=unknown
color_transfer=unknown
chroma_location=left
[/FRAME]
[FRAME]
media_type=video
stream_index=0
key_frame=0
pkt_pts=145857
pkt_pts_time=1.620633
pkt_dts=145857
pkt_dts_time=1.620633
best_effort_timestamp=145857
best_effort_timestamp_time=1.620633
pkt_duration=2975
pkt_duration_time=0.033056
pkt_pos=2694034
pkt_size=46174
width=1280
height=720
pix_fmt=yuvj420p
sample_aspect_ratio=1:1
pict_type=P
coded_picture_number=48
display_picture_number=0
interlaced_frame=0
top_field_first=0
repeat_pict=0
color_range=pc
color_space=unknown
color_primaries=unknown
color_transfer=unknown
chroma_location=left
[/FRAME]
[FRAME]
media_type=video
stream_index=0
key_frame=0
pkt_pts=148832
pkt_pts_time=1.653689
pkt_dts=148832
pkt_dts_time=1.653689
best_effort_timestamp=148832
best_effort_timestamp_time=1.653689
pkt_duration=2972
pkt_duration_time=0.033022
pkt_pos=2740849
pkt_size=47950
width=1280
height=720
pix_fmt=yuvj420p
sample_aspect_ratio=1:1
pict_type=P
coded_picture_number=49
display_picture_number=0
interlaced_frame=0
top_field_first=0
repeat_pict=0
color_range=pc
color_space=unknown
color_primaries=unknown
color_transfer=unknown
chroma_location=left
[/FRAME]
[FRAME]
media_type=video
stream_index=0
key_frame=0
pkt_pts=151804
pkt_pts_time=1.686711
pkt_dts=151804
pkt_dts_time=1.686711
best_effort_timestamp=151804
best_effort_timestamp_time=1.686711
pkt_duration=3002
pkt_duration_time=0.033356
pkt_pos=2789117
pkt_size=47222
width=1280
height=720
pix_fmt=yuvj420p
sample_aspect_ratio=1:1
pict_type=P
coded_picture_number=50
display_picture_number=0
interlaced_frame=0
top_field_first=0
repeat_pict=0
color_range=pc
color_space=unknown
color_primaries=unknown
color_transfer=unknown
chroma_location=left
[/FRAME]
[FRAME]
media_type=video
stream_index=0
key_frame=0
pkt_pts=154806
pkt_pts_time=1.720067
pkt_dts=154806
pkt_dts_time=1.720067
best_effort_timestamp=154806
best_effort_timestamp_time=1.720067
pkt_duration=2947
pkt_duration_time=0.032744
pkt_pos=2836965
pkt_size=40996
width=1280
height=720
pix_fmt=yuvj420p
sample_aspect_ratio=1:1
pict_type=P
coded_picture_number=51
display_picture_number=0
interlaced_frame=0
top_field_first=0
repeat_pict=0
color_range=pc
color_space=unknown
color_primaries=unknown
color_transfer=unknown
chroma_location=left
[/FRAME]
[FRAME]
media_type=video
stream_index=0
key_frame=0
pkt_pts=157753
pkt_pts_time=1.752811
pkt_dts=157753
pkt_dts_time=1.752811
best_effort_timestamp=157753
best_effort_timestamp_time=1.752811
pkt_duration=2996
pkt_duration_time=0.033289
pkt_pos=2878294
pkt_size=53009
width=1280
height=720
pix_fmt=yuvj420p
sample_aspect_ratio=1:1
pict_type=P
coded_picture_number=52
display_picture_number=0
interlaced_frame=0
top_field_first=0
repeat_pict=0
color_range=pc
color_space=unknown
color_primaries=unknown
color_transfer=unknown
chroma_location=left
[/FRAME]
[FRAME]
media_type=video
stream_index=0
key_frame=0
pkt_pts=160749
pkt_pts_time=1.786100
pkt_dts=160749
pkt_dts_time=1.786100
best_effort_timestamp=160749
best_effort_timestamp_time=1.786100
pkt_duration=2939
pkt_duration_time=0.032656
pkt_pos=2931975
pkt_size=42820
width=1280
height=720
pix_fmt=yuvj420p
sample_aspect_ratio=1:1
pict_type=P
coded_picture_number=53
display_picture_number=0
interlaced_frame=0
top_field_first=0
repeat_pict=0
color_range=pc
color_space=unknown
color_primaries=unknown
color_transfer=unknown
chroma_location=left
[/FRAME]
[FRAME]
media_type=video
stream_index=0
key_frame=0
pkt_pts=163688
pkt_pts_time=1.818756
pkt_dts=163688
pkt_dts_time=1.818756
best_effort_timestamp=163688
best_effort_timestamp_time=1.818756
pkt_duration=3027
pkt_duration_time=0.033633
pkt_pos=2975122
pkt_size=50515
width=1280
height=720
pix_fmt=yuvj420p
sample_aspect_ratio=1:1
pict_type=P
coded_picture_number=54
display_picture_number=0
interlaced_frame=0
top_field_first=0
repeat_pict=0
color_range=pc
color_space=unknown
color_primaries=unknown
color_transfer=unknown
chroma_location=left
[/FRAME]
[FRAME]
media_type=video
stream_index=0
key_frame=0
pkt_pts=166715
pkt_pts_time=1.852389
pkt_dts=166715
pkt_dts_time=1.852389
best_effort_timestamp=166715
best_effort_timestamp_time=1.852389
pkt_duration=2936
pkt_duration_time=0.032622
pkt_pos=3026315
pkt_size=43827
width=1280
height=720
pix_fmt=yuvj420p
sample_aspect_ratio=1:1
pict_type=P
coded_picture_number=55
display_picture_number=0
interlaced_frame=0
top_field_first=0
repeat_pict=0
color_range=pc
color_space=unknown
color_primaries=unknown
color_transfer=unknown
chroma_location=left
[/FRAME]
[FRAME]
media_type=video
stream_index=0
key_frame=0
pkt_pts=169651
pkt_pts_time=1.885011
pkt_dts=169651
pkt_dts_time=1.885011
best_effort_timestamp=169651
best_effort_timestamp_time=1.885011
pkt_duration=3002
pkt_duration_time=0.033356
pkt_pos=3070796
pkt_size=39428
width=1280
height=720
pix_fmt=yuvj420p
sample_aspect_ratio=1:1
pict_type=P
coded_picture_number=56
display_picture_number=0
interlaced_frame=0
top_field_first=0
repeat_pict=0
color_range=pc
color_space=unknown
color_primaries=unknown
color_transfer=unknown
chroma_location=left
[/FRAME]
[FRAME]
media_type=video
stream_index=0
key_frame=0
pkt_pts=172653
pkt_pts_time=1.918367
pkt_dts=172653
pkt_dts_time=1.918367
best_effort_timestamp=172653
best_effort_timestamp_time=1.918367
pkt_duration=2972
pkt_duration_time=0.033022
pkt_pos=3110548
pkt_size=37218
width=1280
height=720
pix_fmt=yuvj420p
sample_aspect_ratio=1:1
pict_type=P
coded_picture_number=57
display_picture_number=0
interlaced_frame=0
top_field_first=0
repeat_pict=0
color_range=pc
color_space=unknown
color_primaries=unknown
color_transfer=unknown
chroma_location=left
[/FRAME]
[FRAME]
media_type=video
stream_index=0
key_frame=0
pkt_pts=175625
pkt_pts_time=1.951389
pkt_dts=175625
pkt_dts_time=1.951389
best_effort_timestamp=175625
best_effort_timestamp_time=1.951389
pkt_duration=2985
pkt_duration_time=0.033167
pkt_pos=3148416
pkt_size=32439
width=1280
height=720
pix_fmt=yuvj420p
sample_aspect_ratio=1:1
pict_type=P
coded_picture_number=58
display_picture_number=0
interlaced_frame=0
top_field_first=0
repeat_pict=0
color_range=pc
color_space=unknown
color_primaries=unknown
color_transfer=unknown
chroma_location=left
[/FRAME]
[FRAME]
media_type=video
stream_index=0
key_frame=0
pkt_pts=178610
pkt_pts_time=1.984556
pkt_dts=178610
pkt_dts_time=1.984556
best_effort_timestamp=178610
best_effort_timestamp_time=1.984556
pkt_duration=3010
pkt_duration_time=0.033444
pkt_pos=3181176
pkt_size=42676
width=1280
height=720
pix_fmt=yuvj420p
sample_aspect_ratio=1:1
pict_type=P
coded_picture_number=59
display_picture_number=0
interlaced_frame=0
top_field_first=0
repeat_pict=0
color_range=pc
color_space=unknown
color_primaries=unknown
color_transfer=unknown
chroma_location=left
[/FRAME]
[STREAM]
bit_rate=12662818
[/STREAM]
